<svg width="181" height="180" viewBox="0 0 181 180" fill="none" xmlns="http://www.w3.org/2000/svg">
<g clip-path="url(#clip0_75_88)">
<path d="M83 37.5V7.5H98V37.5H83ZM132.875 58.125L122.562 47.8125L143.562 26.25L154.062 36.9375L132.875 58.125ZM143 97.5V82.5H173V97.5H143ZM83 172.5V142.5H98V172.5H83ZM48.125 57.75L26.75 36.9375L37.4375 26.4375L58.625 47.625L48.125 57.75ZM143.375 153.75L122.562 132.188L132.688 122.062L154.062 142.688L143.375 153.75ZM8 97.5V82.5H38V97.5H8ZM37.4375 153.75L26.9375 143.062L47.9375 122.062L53.375 127.125L58.8125 132.375L37.4375 153.75ZM90.5 135C78 135 67.375 130.625 58.625 121.875C49.875 113.125 45.5 102.5 45.5 90C45.5 77.5 49.875 66.875 58.625 58.125C67.375 49.375 78 45 90.5 45C103 45 113.625 49.375 122.375 58.125C131.125 66.875 135.5 77.5 135.5 90C135.5 102.5 131.125 113.125 122.375 121.875C113.625 130.625 103 135 90.5 135ZM90.5 120C98.75 120 105.812 117.063 111.688 111.188C117.563 105.312 120.5 98.25 120.5 90C120.5 81.75 117.563 74.6875 111.688 68.8125C105.812 62.9375 98.75 60 90.5 60C82.25 60 75.1875 62.9375 69.3125 68.8125C63.4375 74.6875 60.5 81.75 60.5 90C60.5 98.25 63.4375 105.312 69.3125 111.188C75.1875 117.063 82.25 120 90.5 120Z" fill="#FDBA74"/>
</g>
<defs>
<clipPath id="clip0_75_88">
<rect width="180" height="180" fill="white" transform="translate(0.5)"/>
</clipPath>
</defs>
</svg>
