<svg width="181" height="180" viewBox="0 0 181 180" fill="none" xmlns="http://www.w3.org/2000/svg">
<g clip-path="url(#clip0_75_93)">
<path d="M49.25 150C37.875 150 28.1562 146.062 20.0938 138.188C12.0312 130.312 8 120.688 8 109.312C8 99.5625 10.9375 90.875 16.8125 83.25C22.6875 75.625 30.375 70.75 39.875 68.625C43 57.125 49.25 47.8125 58.625 40.6875C68 33.5625 78.625 30 90.5 30C105.125 30 117.531 35.0938 127.719 45.2812C137.906 55.4687 143 67.875 143 82.5C151.625 83.5 158.781 87.2188 164.469 93.6562C170.156 100.094 173 107.625 173 116.25C173 125.625 169.719 133.594 163.156 140.156C156.594 146.719 148.625 150 139.25 150H49.25ZM49.25 135H139.25C144.5 135 148.937 133.188 152.562 129.562C156.188 125.937 158 121.5 158 116.25C158 111 156.188 106.563 152.562 102.938C148.937 99.3125 144.5 97.5 139.25 97.5H128V82.5C128 72.125 124.344 63.2812 117.031 55.9688C109.719 48.6562 100.875 45 90.5 45C80.125 45 71.2812 48.6562 63.9688 55.9688C56.6562 63.2812 53 72.125 53 82.5H49.25C42 82.5 35.8125 85.0625 30.6875 90.1875C25.5625 95.3125 23 101.5 23 108.75C23 116 25.5625 122.187 30.6875 127.312C35.8125 132.438 42 135 49.25 135Z" fill="#FAFAFA"/>
</g>
<defs>
<clipPath id="clip0_75_93">
<rect width="180" height="180" fill="white" transform="translate(0.5)"/>
</clipPath>
</defs>
</svg>
