<svg width="181" height="180" viewBox="0 0 181 180" fill="none" xmlns="http://www.w3.org/2000/svg">
<g clip-path="url(#clip0_75_96)">
<path d="M135.5 142.5C133.375 142.5 131.594 141.781 130.156 140.344C128.719 138.906 128 137.125 128 135C128 132.875 128.719 131.094 130.156 129.656C131.594 128.219 133.375 127.5 135.5 127.5C137.625 127.5 139.406 128.219 140.844 129.656C142.281 131.094 143 132.875 143 135C143 137.125 142.281 138.906 140.844 140.344C139.406 141.781 137.625 142.5 135.5 142.5ZM53 165C50.875 165 49.0937 164.281 47.6562 162.844C46.2188 161.406 45.5 159.625 45.5 157.5C45.5 155.375 46.2188 153.594 47.6562 152.156C49.0937 150.719 50.875 150 53 150C55.125 150 56.9063 150.719 58.3438 152.156C59.7812 153.594 60.5 155.375 60.5 157.5C60.5 159.625 59.7812 161.406 58.3438 162.844C56.9063 164.281 55.125 165 53 165ZM45.5 142.5C43.375 142.5 41.5937 141.781 40.1562 140.344C38.7188 138.906 38 137.125 38 135C38 132.875 38.7188 131.094 40.1562 129.656C41.5937 128.219 43.375 127.5 45.5 127.5H113C115.125 127.5 116.906 128.219 118.344 129.656C119.781 131.094 120.5 132.875 120.5 135C120.5 137.125 119.781 138.906 118.344 140.344C116.906 141.781 115.125 142.5 113 142.5H45.5ZM75.5 165C73.375 165 71.5937 164.281 70.1562 162.844C68.7188 161.406 68 159.625 68 157.5C68 155.375 68.7188 153.594 70.1562 152.156C71.5937 150.719 73.375 150 75.5 150H128C130.125 150 131.906 150.719 133.344 152.156C134.781 153.594 135.5 155.375 135.5 157.5C135.5 159.625 134.781 161.406 133.344 162.844C131.906 164.281 130.125 165 128 165H75.5ZM56.75 120C45.375 120 35.6562 115.969 27.5938 107.906C19.5312 99.8438 15.5 90.125 15.5 78.75C15.5 68.375 18.9375 59.3125 25.8125 51.5625C32.6875 43.8125 41.1875 39.25 51.3125 37.875C55.3125 30.75 60.7812 25.1562 67.7188 21.0938C74.6562 17.0313 82.25 15 90.5 15C101.75 15 111.531 18.5938 119.844 25.7812C128.156 32.9687 133.188 41.9375 134.938 52.6875C143.562 53.4375 150.812 57 156.688 63.375C162.563 69.75 165.5 77.375 165.5 86.25C165.5 95.625 162.219 103.594 155.656 110.156C149.094 116.719 141.125 120 131.75 120H56.75ZM56.75 105H131.75C137 105 141.437 103.188 145.062 99.5625C148.688 95.9375 150.5 91.5 150.5 86.25C150.5 81 148.688 76.5625 145.062 72.9375C141.437 69.3125 137 67.5 131.75 67.5H120.5V60C120.5 51.75 117.563 44.6875 111.688 38.8125C105.812 32.9375 98.75 30 90.5 30C84.5 30 79.0313 31.625 74.0938 34.875C69.1562 38.125 65.4375 42.5 62.9375 48L61.0625 52.5H56.375C49.25 52.75 43.1562 55.4062 38.0938 60.4688C33.0312 65.5312 30.5 71.625 30.5 78.75C30.5 86 33.0625 92.1875 38.1875 97.3125C43.3125 102.438 49.5 105 56.75 105Z" fill="#FAFAFA"/>
</g>
<defs>
<clipPath id="clip0_75_96">
<rect width="180" height="180" fill="white" transform="translate(0.5)"/>
</clipPath>
</defs>
</svg>
