<svg width="181" height="180" viewBox="0 0 181 180" fill="none" xmlns="http://www.w3.org/2000/svg">
<g clip-path="url(#clip0_75_90)">
<path d="M83 37.5V7.5H98V37.5H83ZM132.875 58.125L122.375 47.625L143.563 26.25L154.063 36.9375L132.875 58.125ZM143 97.5V82.5H173V97.5H143ZM143.563 153.563L122.375 132.375L132.875 121.875L154.25 142.875L143.563 153.563ZM48.125 58.125L26.9375 36.9375L37.625 26.25L58.625 47.625L48.125 58.125ZM45.5 142.5H79.25C82.375 142.5 85.0312 141.406 87.2188 139.219C89.4063 137.031 90.5 134.375 90.5 131.25C90.5 128.125 89.4375 125.469 87.3125 123.281C85.1875 121.094 82.5625 120 79.4375 120H69.875L66.125 111C64.375 106.875 61.625 103.594 57.875 101.156C54.125 98.7188 50 97.5 45.5 97.5C39.25 97.5 33.9375 99.6875 29.5625 104.062C25.1875 108.438 23 113.75 23 120C23 126.25 25.1875 131.562 29.5625 135.938C33.9375 140.313 39.25 142.5 45.5 142.5ZM45.5 157.5C35.125 157.5 26.2812 153.844 18.9687 146.531C11.6562 139.219 8 130.375 8 120C8 109.625 11.6562 100.781 18.9687 93.4688C26.2812 86.1563 35.125 82.5 45.5 82.5C53 82.5 59.8438 84.5312 66.0313 88.5938C72.2188 92.6563 76.8125 98.125 79.8125 105C87.0625 105 93.1562 107.687 98.0937 113.062C103.031 118.437 105.5 124.875 105.5 132.375C105.25 139.5 102.594 145.469 97.5312 150.281C92.4687 155.094 86.375 157.5 79.25 157.5H45.5ZM105.5 132.375C104.875 129.875 104.25 127.438 103.625 125.063C103 122.688 102.375 120.25 101.75 117.75C107.375 115.375 111.906 111.688 115.344 106.688C118.781 101.688 120.5 96.125 120.5 90C120.5 81.75 117.562 74.6875 111.687 68.8125C105.812 62.9375 98.75 60 90.5 60C83 60 76.4375 62.4375 70.8125 67.3125C65.1875 72.1875 61.875 78.375 60.875 85.875C58.375 85.25 55.8125 84.6875 53.1875 84.1875C50.5625 83.6875 48 83.125 45.5 82.5C47.25 71.5 52.4062 62.5 60.9688 55.5C69.5313 48.5 79.375 45 90.5 45C103 45 113.625 49.375 122.375 58.125C131.125 66.875 135.5 77.5 135.5 90C135.5 99.625 132.75 108.281 127.25 115.969C121.75 123.656 114.5 129.125 105.5 132.375Z" fill="#FDBA74"/>
<path d="M45.5 142.5H79.25C82.375 142.5 85.0312 141.406 87.2188 139.219C89.4063 137.031 90.5 134.375 90.5 131.25C90.5 128.125 89.4375 125.469 87.3125 123.281C85.1875 121.094 82.5625 120 79.4375 120H69.875L66.125 111C64.375 106.875 61.625 103.594 57.875 101.156C54.125 98.7188 50 97.5 45.5 97.5C39.25 97.5 33.9375 99.6875 29.5625 104.062C25.1875 108.438 23 113.75 23 120C23 126.25 25.1875 131.562 29.5625 135.938C33.9375 140.313 39.25 142.5 45.5 142.5ZM45.5 157.5C35.125 157.5 26.2812 153.844 18.9687 146.531C11.6562 139.219 8 130.375 8 120C8 109.625 11.6562 100.781 18.9687 93.4688C26.2812 86.1563 35.125 82.5 45.5 82.5C53 82.5 59.8438 84.5312 66.0313 88.5938C72.2188 92.6563 76.8125 98.125 79.8125 105C87.0625 105 93.1562 107.687 98.0937 113.062C103.031 118.437 105.5 124.875 105.5 132.375C105.25 139.5 102.594 145.469 97.5312 150.281C92.4687 155.094 86.375 157.5 79.25 157.5H45.5Z" fill="#FAFAFA"/>
</g>
<defs>
<clipPath id="clip0_75_90">
<rect width="180" height="180" fill="white" transform="translate(0.5)"/>
</clipPath>
</defs>
</svg>
