<svg width="181" height="180" viewBox="0 0 181 180" fill="none" xmlns="http://www.w3.org/2000/svg">
<g clip-path="url(#clip0_75_99)">
<path d="M105.125 164.25C103.25 165.25 101.344 165.406 99.4062 164.719C97.4688 164.031 96 162.75 95 160.875L83.75 138.375C82.75 136.5 82.5937 134.594 83.2812 132.656C83.9688 130.719 85.25 129.25 87.125 128.25C89 127.25 90.9063 127.094 92.8438 127.781C94.7812 128.469 96.25 129.75 97.25 131.625L108.5 154.125C109.5 156 109.656 157.906 108.969 159.844C108.281 161.781 107 163.25 105.125 164.25ZM150.125 164.25C148.25 165.25 146.344 165.406 144.406 164.719C142.469 164.031 141 162.75 140 160.875L128.75 138.375C127.75 136.5 127.594 134.594 128.281 132.656C128.969 130.719 130.25 129.25 132.125 128.25C134 127.25 135.906 127.094 137.844 127.781C139.781 128.469 141.25 129.75 142.25 131.625L153.5 154.125C154.5 156 154.656 157.906 153.969 159.844C153.281 161.781 152 163.25 150.125 164.25ZM60.125 164.25C58.25 165.25 56.3437 165.406 54.4062 164.719C52.4688 164.031 51 162.75 50 160.875L38.75 138.375C37.75 136.5 37.5937 134.594 38.2812 132.656C38.9688 130.719 40.25 129.25 42.125 128.25C44 127.25 45.9063 127.094 47.8438 127.781C49.7812 128.469 51.25 129.75 52.25 131.625L63.5 154.125C64.5 156 64.6563 157.906 63.9688 159.844C63.2812 161.781 62 163.25 60.125 164.25ZM56.75 120C45.375 120 35.6562 115.969 27.5938 107.906C19.5312 99.8438 15.5 90.125 15.5 78.75C15.5 68.375 18.9375 59.3125 25.8125 51.5625C32.6875 43.8125 41.1875 39.25 51.3125 37.875C55.3125 30.75 60.7812 25.1563 67.7188 21.0938C74.6562 17.0313 82.25 15 90.5 15C101.75 15 111.531 18.5938 119.844 25.7813C128.156 32.9688 133.188 41.9375 134.938 52.6875C143.562 53.4375 150.812 57 156.688 63.375C162.563 69.75 165.5 77.375 165.5 86.25C165.5 95.625 162.219 103.594 155.656 110.156C149.094 116.719 141.125 120 131.75 120H56.75ZM56.75 105H131.75C137 105 141.437 103.188 145.062 99.5625C148.688 95.9375 150.5 91.5 150.5 86.25C150.5 81 148.688 76.5625 145.062 72.9375C141.437 69.3125 137 67.5 131.75 67.5H120.5V60C120.5 51.75 117.563 44.6875 111.688 38.8125C105.812 32.9375 98.75 30 90.5 30C84.5 30 79.0313 31.625 74.0938 34.875C69.1562 38.125 65.4375 42.5 62.9375 48L61.0625 52.5H56.375C49.25 52.75 43.1562 55.4063 38.0938 60.4688C33.0312 65.5313 30.5 71.625 30.5 78.75C30.5 86 33.0625 92.1875 38.1875 97.3125C43.3125 102.438 49.5 105 56.75 105Z" fill="#FAFAFA"/>
<path d="M105.125 164.25C103.25 165.25 101.344 165.406 99.4062 164.719C97.4687 164.031 96 162.75 95 160.875L83.75 138.375C82.75 136.5 82.5937 134.594 83.2812 132.656C83.9687 130.719 85.25 129.25 87.125 128.25C89 127.25 90.9062 127.094 92.8437 127.781C94.7812 128.469 96.25 129.75 97.25 131.625L108.5 154.125C109.5 156 109.656 157.906 108.969 159.844C108.281 161.781 107 163.25 105.125 164.25ZM150.125 164.25C148.25 165.25 146.344 165.406 144.406 164.719C142.469 164.031 141 162.75 140 160.875L128.75 138.375C127.75 136.5 127.594 134.594 128.281 132.656C128.969 130.719 130.25 129.25 132.125 128.25C134 127.25 135.906 127.094 137.844 127.781C139.781 128.469 141.25 129.75 142.25 131.625L153.5 154.125C154.5 156 154.656 157.906 153.969 159.844C153.281 161.781 152 163.25 150.125 164.25ZM60.125 164.25C58.25 165.25 56.3437 165.406 54.4062 164.719C52.4687 164.031 51 162.75 50 160.875L38.75 138.375C37.75 136.5 37.5937 134.594 38.2812 132.656C38.9687 130.719 40.25 129.25 42.125 128.25C44 127.25 45.9062 127.094 47.8437 127.781C49.7812 128.469 51.25 129.75 52.25 131.625L63.5 154.125C64.5 156 64.6562 157.906 63.9687 159.844C63.2812 161.781 62 163.25 60.125 164.25Z" fill="#3B82F6"/>
</g>
<defs>
<clipPath id="clip0_75_99">
<rect width="180" height="180" fill="white" transform="translate(0.5)"/>
</clipPath>
</defs>
</svg>
