<svg width="181" height="180" viewBox="0 0 181 180" fill="none" xmlns="http://www.w3.org/2000/svg">
<g clip-path="url(#clip0_75_102)">
<path d="M49.25 142.5C46.625 142.5 44.4063 141.594 42.5938 139.781C40.7812 137.969 39.875 135.75 39.875 133.125C39.875 130.5 40.7812 128.281 42.5938 126.469C44.4063 124.656 46.625 123.75 49.25 123.75C51.875 123.75 54.0937 124.656 55.9062 126.469C57.7188 128.281 58.625 130.5 58.625 133.125C58.625 135.75 57.7188 137.969 55.9062 139.781C54.0937 141.594 51.875 142.5 49.25 142.5ZM71.75 165C69.125 165 66.9063 164.094 65.0938 162.281C63.2812 160.469 62.375 158.25 62.375 155.625C62.375 153 63.2812 150.781 65.0938 148.969C66.9063 147.156 69.125 146.25 71.75 146.25C74.375 146.25 76.5937 147.156 78.4062 148.969C80.2188 150.781 81.125 153 81.125 155.625C81.125 158.25 80.2188 160.469 78.4062 162.281C76.5937 164.094 74.375 165 71.75 165ZM94.25 142.5C91.625 142.5 89.4063 141.594 87.5938 139.781C85.7812 137.969 84.875 135.75 84.875 133.125C84.875 130.5 85.7812 128.281 87.5938 126.469C89.4063 124.656 91.625 123.75 94.25 123.75C96.875 123.75 99.0937 124.656 100.906 126.469C102.719 128.281 103.625 130.5 103.625 133.125C103.625 135.75 102.719 137.969 100.906 139.781C99.0937 141.594 96.875 142.5 94.25 142.5ZM139.25 142.5C136.625 142.5 134.406 141.594 132.594 139.781C130.781 137.969 129.875 135.75 129.875 133.125C129.875 130.5 130.781 128.281 132.594 126.469C134.406 124.656 136.625 123.75 139.25 123.75C141.875 123.75 144.094 124.656 145.906 126.469C147.719 128.281 148.625 130.5 148.625 133.125C148.625 135.75 147.719 137.969 145.906 139.781C144.094 141.594 141.875 142.5 139.25 142.5ZM116.75 165C114.125 165 111.906 164.094 110.094 162.281C108.281 160.469 107.375 158.25 107.375 155.625C107.375 153 108.281 150.781 110.094 148.969C111.906 147.156 114.125 146.25 116.75 146.25C119.375 146.25 121.594 147.156 123.406 148.969C125.219 150.781 126.125 153 126.125 155.625C126.125 158.25 125.219 160.469 123.406 162.281C121.594 164.094 119.375 165 116.75 165ZM56.75 112.5C45.375 112.5 35.6562 108.469 27.5938 100.406C19.5312 92.3438 15.5 82.625 15.5 71.25C15.5 60.875 18.9375 51.8125 25.8125 44.0625C32.6875 36.3125 41.1875 31.75 51.3125 30.375C55.3125 23.25 60.7812 17.6562 67.7188 13.5938C74.6562 9.53125 82.25 7.5 90.5 7.5C101.75 7.5 111.531 11.0938 119.844 18.2812C128.156 25.4687 133.188 34.4375 134.938 45.1875C143.562 45.9375 150.812 49.5 156.688 55.875C162.563 62.25 165.5 69.875 165.5 78.75C165.5 88.125 162.219 96.0938 155.656 102.656C149.094 109.219 141.125 112.5 131.75 112.5H56.75ZM56.75 97.5H131.75C137 97.5 141.437 95.6875 145.062 92.0625C148.688 88.4375 150.5 84 150.5 78.75C150.5 73.5 148.688 69.0625 145.062 65.4375C141.437 61.8125 137 60 131.75 60H120.5V52.5C120.5 44.25 117.563 37.1875 111.688 31.3125C105.812 25.4375 98.75 22.5 90.5 22.5C84.5 22.5 79.0313 24.125 74.0938 27.375C69.1562 30.625 65.4375 35 62.9375 40.5L61.0625 45H56.375C49.25 45.25 43.1562 47.9062 38.0938 52.9688C33.0312 58.0312 30.5 64.125 30.5 71.25C30.5 78.5 33.0625 84.6875 38.1875 89.8125C43.3125 94.9375 49.5 97.5 56.75 97.5Z" fill="#F8FAFC"/>
</g>
<defs>
<clipPath id="clip0_75_102">
<rect width="180" height="180" fill="white" transform="translate(0.5)"/>
</clipPath>
</defs>
</svg>
