<svg width="24" height="24" viewBox="0 0 24 24" fill="none" xmlns="http://www.w3.org/2000/svg">
<path d="M22.5 13.5H18C17.6023 13.4996 17.221 13.3414 16.9398 13.0602C16.6586 12.779 16.5004 12.3977 16.5 12V4.5C16.5004 4.1023 16.6586 3.721 16.9398 3.43978C17.221 3.15856 17.6023 3.0004 18 3H22.5V4.5H18V12H22.5V13.5Z" fill="black"/>
<path d="M13.5 4.5C14.3284 4.5 15 3.82843 15 3C15 2.17157 14.3284 1.5 13.5 1.5C12.6716 1.5 12 2.17157 12 3C12 3.82843 12.6716 4.5 13.5 4.5Z" fill="black"/>
<path d="M7.5 15.138V9H6V15.138C5.49959 15.3149 5.07784 15.6631 4.80928 16.1209C4.54072 16.5787 4.44265 17.1167 4.53241 17.6398C4.62216 18.1629 4.89396 18.6375 5.29976 18.9796C5.70556 19.3217 6.21924 19.5093 6.75 19.5093C7.28077 19.5093 7.79445 19.3217 8.20025 18.9796C8.60605 18.6375 8.87785 18.1629 8.9676 17.6398C9.05736 17.1167 8.95929 16.5787 8.69073 16.1209C8.42217 15.6631 8.00042 15.3149 7.5 15.138Z" fill="black"/>
<path d="M6.74998 22.5C5.71646 22.5012 4.70564 22.1969 3.84444 21.6255C2.98323 21.0541 2.31005 20.241 1.90942 19.2883C1.50878 18.3356 1.39856 17.2858 1.59258 16.2706C1.78661 15.2555 2.27624 14.3203 2.99998 13.5825V5.25C2.99998 4.25544 3.39507 3.30161 4.09833 2.59835C4.80159 1.89509 5.75542 1.5 6.74998 1.5C7.74454 1.5 8.69837 1.89509 9.40163 2.59835C10.1049 3.30161 10.5 4.25544 10.5 5.25V13.5825C11.2237 14.3203 11.7134 15.2555 11.9074 16.2706C12.1014 17.2858 11.9912 18.3356 11.5905 19.2883C11.1899 20.241 10.5167 21.0541 9.65553 21.6255C8.79433 22.1969 7.7835 22.5012 6.74998 22.5ZM6.74998 3C6.15343 3.0006 5.58148 3.23784 5.15965 3.65967C4.73782 4.0815 4.50058 4.65345 4.49998 5.25V14.2373L4.25098 14.4615C3.68464 14.9677 3.28537 15.6339 3.10602 16.372C2.92666 17.1101 2.97569 17.8853 3.2466 18.5949C3.5175 19.3046 3.99753 19.9152 4.62312 20.346C5.24872 20.7768 5.9904 21.0075 6.74998 21.0075C7.50956 21.0075 8.25124 20.7768 8.87684 20.346C9.50244 19.9152 9.98246 19.3046 10.2534 18.5949C10.5243 17.8853 10.5733 17.1101 10.3939 16.372C10.2146 15.6339 9.81532 14.9677 9.24898 14.4615L8.99998 14.2373V5.25C8.99939 4.65345 8.76214 4.0815 8.34031 3.65967C7.91849 3.23784 7.34654 3.0006 6.74998 3Z" fill="black"/>
</svg>
